<svg width="89" height="77" viewBox="0 0 89 77" fill="none" xmlns="http://www.w3.org/2000/svg">
<circle cx="43" cy="37.9999" r="4" fill="#444952"/>
<path fill-rule="evenodd" clip-rule="evenodd" d="M0.777135 38.7932L0.784597 38.8006L14.1357 52.1517C14.5262 52.5422 15.1594 52.5422 15.5499 52.1517L15.62 52.0817C16.0105 51.6911 16.0105 51.058 15.62 50.6674L4.01516 39.0627L74.5654 39.0627C75.1177 39.0627 75.5654 38.6149 75.5654 38.0627V37.9636C75.5654 37.4113 75.1177 36.9636 74.5654 36.9636L4.02092 36.9636L15.6196 25.365C16.0101 24.9745 16.0101 24.3413 15.6196 23.9508L15.5495 23.8807C15.159 23.4902 14.5258 23.4902 14.1353 23.8807L0.707107 37.3089C0.316582 37.6995 0.316582 38.3326 0.707106 38.7232L0.777135 38.7932Z" fill="#444952"/>
<path fill-rule="evenodd" clip-rule="evenodd" d="M87.2522 38.7932L87.2447 38.8006L73.8936 52.1517C73.5031 52.5422 72.8699 52.5422 72.4794 52.1517L72.4093 52.0817C72.0188 51.6911 72.0188 51.058 72.4093 50.6674L84.0141 39.0627L13.4639 39.0627C12.9116 39.0627 12.4639 38.6149 12.4639 38.0627V37.9636C12.4639 37.4113 12.9116 36.9636 13.4639 36.9636L84.0084 36.9636L72.4097 25.365C72.0192 24.9745 72.0192 24.3413 72.4097 23.9508L72.4798 23.8807C72.8703 23.4902 73.5035 23.4902 73.894 23.8807L87.3222 37.3089C87.7127 37.6995 87.7127 38.3326 87.3222 38.7232L87.2522 38.7932Z" fill="#444952"/>
</svg>
