<svg width="10" height="10" viewBox="0 0 10 10" fill="none" xmlns="http://www.w3.org/2000/svg">
<path d="M9.21882 7.08068L8.13906 6.45677L9.05064 5.91388C9.19719 5.84327 9.24254 5.64648 9.1592 5.5018C9.07436 5.35364 8.89123 5.32239 8.75222 5.40341L7.53682 6.11529L5.6052 4.99132L7.5368 3.87892L8.75221 4.58965C8.79017 4.61743 8.83901 4.63364 8.89332 4.63364C8.99633 4.63364 9.0886 4.58503 9.15919 4.49241C9.24057 4.34541 9.19717 4.15094 9.05062 4.08034L8.13904 3.53745L9.21881 2.91355C9.35955 2.83252 9.40794 2.65078 9.32737 2.50146C9.25041 2.35792 9.05999 2.30815 8.91495 2.39265L7.82975 3.02235L7.81354 1.93658C7.811 1.76873 7.68331 1.63329 7.51513 1.63329C7.34697 1.63329 7.21546 1.77914 7.21673 1.93658L7.22749 3.36961L5.30677 4.482V2.22479L6.51675 1.5349C6.658 1.45502 6.71955 1.26866 6.63609 1.12282C6.55135 0.974657 6.3774 0.930658 6.22912 1.01402L5.30677 1.53491V0.303269C5.30677 0.135426 5.1711 0 5.00292 0C4.83473 0 4.7045 0.135426 4.7045 0.303269V1.54646L3.74952 1.014C3.60077 0.931814 3.43143 0.978113 3.34797 1.12281C3.26325 1.27097 3.31591 1.45271 3.46188 1.53488L4.7045 2.2352V4.47042L2.74028 3.33719L2.75116 1.93656C2.76748 1.77914 2.62637 1.63328 2.45819 1.63328H2.44731C2.28999 1.63328 2.15063 1.76872 2.14889 1.93656L2.13801 2.98992L1.08002 2.38221C0.932317 2.29655 0.750007 2.34748 0.673033 2.48986C0.59246 2.64034 0.634132 2.81745 0.781611 2.90311L1.85048 3.52123L0.917165 4.08032C0.770714 4.15094 0.724987 4.34772 0.814128 4.49241C0.871538 4.58618 0.955124 4.63364 1.06913 4.63364C1.12874 4.63364 1.17839 4.61859 1.22643 4.58965L2.44729 3.8685L4.40609 4.99132L2.44729 6.12571L1.22643 5.40341C1.07988 5.31775 0.890974 5.35826 0.814114 5.5018C0.733541 5.65112 0.777298 5.83055 0.917137 5.91388L1.85046 6.46718L0.781582 7.09109C0.63446 7.17675 0.586762 7.35733 0.673005 7.50434C0.733327 7.60621 0.814128 7.65599 0.928033 7.65599C0.955124 7.65599 1.00941 7.63978 1.08002 7.612L2.13801 7.0043L2.14889 8.05765C2.15063 8.2255 2.28999 8.35514 2.44731 8.35514H2.45819C2.62637 8.35514 2.75243 8.21507 2.75116 8.04607L2.74028 6.6466L4.7045 5.52379V7.74743L3.46188 8.44774C3.3136 8.53108 3.26173 8.71282 3.34797 8.85983C3.40828 8.96285 3.48908 9.01262 3.60297 9.01262C3.65727 9.01262 3.70727 9.00336 3.74952 8.97904L4.7045 8.4373V9.70134C4.7045 9.86919 4.83473 9.99998 5.00292 9.99998C5.1711 9.99998 5.30677 9.86919 5.30677 9.70134V8.45813L6.22912 8.97904C6.27135 9.00335 6.32136 9.01262 6.37023 9.01262C6.48954 9.01262 6.57753 8.96401 6.63609 8.85983C6.71851 8.71397 6.66527 8.53107 6.51675 8.44774L5.30677 7.76942V5.51221L7.22749 6.62461L7.21673 8.04607C7.21533 8.21507 7.34695 8.35514 7.51514 8.35514C7.68333 8.35514 7.811 8.2255 7.81354 8.05765L7.82975 6.96609L8.91495 7.60158C8.95685 7.62589 9.01264 7.634 9.07237 7.634C9.18629 7.634 9.26985 7.58654 9.32736 7.49277C9.41641 7.34808 9.35956 7.16171 9.21882 7.08068Z" fill="#444952"/>
</svg>
