<svg width="14" height="25" viewBox="0 0 14 25" fill="none" xmlns="http://www.w3.org/2000/svg">
<path d="M0 0H1.25885L2.9416 5.47435H2.96729L4.63719 0H5.90889V10.3388H4.59866V4.05131H4.57297L3.27558 8.49468H2.62046L1.33592 4.05131H1.31023V10.3388H0V0Z" fill="#3B3D43"/>
<path d="M9.76101 0H14V1.394H11.0712V4.42885H13.666V5.82285H11.0712V8.8577H14V10.3388H9.76101V0Z" fill="#3B3D43"/>
<path d="M0.000522681 14.5741H1.25937L4.57297 21.4659H4.59866V14.5741H5.90889V24.9129H4.67573L1.33592 18.2043H1.31023L1.31075 24.9129H0.000522681V14.5741Z" fill="#3B3D43"/>
<path d="M13.8522 22.5895C13.8522 22.9284 13.7965 23.243 13.6852 23.5334C13.5739 23.8238 13.4197 24.0803 13.2228 24.303C13.0344 24.516 12.8117 24.6854 12.5548 24.8112C12.2979 24.9371 12.0239 25 11.7327 25C11.4415 25 11.1675 24.9371 10.9106 24.8112C10.6537 24.6854 10.4268 24.516 10.2298 24.303C10.0414 24.0803 9.89153 23.8238 9.7802 23.5334C9.66887 23.243 9.61321 22.9284 9.61321 22.5895V14.5741H10.9234V22.4443C10.9234 22.8122 11.0005 23.0833 11.1547 23.2575C11.3088 23.4318 11.5015 23.5189 11.7327 23.5189C11.9639 23.5189 12.1566 23.4318 12.3107 23.2575C12.4649 23.0833 12.542 22.8122 12.542 22.4443V14.5741H13.8522V22.5895Z" fill="#3B3D43"/>
</svg>
