<svg width="24" height="24" viewBox="0 0 24 24" fill="none" xmlns="http://www.w3.org/2000/svg">
<path fill-rule="evenodd" clip-rule="evenodd" d="M19.6453 23.375H14.7235V17.6562H18.1316L19.0691 12.0312H14.7235V10.625H18.9422V5H14.0203C11.3064 5 9.09847 7.20789 9.09847 9.92188V12.0312H6.2859V17.6562H9.09847V23.375C-18.9908 23.375 36.3495 23.375 19.6453 23.375ZM10.5047 23.375V16.25H7.69215V13.4375H10.5047V9.92188C10.5047 7.98334 12.0818 6.40625 14.0203 6.40625H17.536V9.21875H14.7235C13.948 9.21875 13.3172 9.84955 13.3172 10.625V13.4375H17.4091L16.9403 16.25H13.3172V23.375H10.5047Z" fill="#4C4E55"/>
<rect x="0.75" y="0.75" width="22.5" height="22.5" rx="6.25" stroke="#4C4E55" stroke-width="1.5"/>
</svg>
