<svg width="18" height="18" viewBox="0 0 18 18" fill="none" xmlns="http://www.w3.org/2000/svg">
<path d="M17.9914 14.2028C18.0295 14.495 17.9405 14.7491 17.7246 14.965L15.1903 17.4802C15.0759 17.6073 14.9267 17.7153 14.7425 17.8042C14.5583 17.8931 14.3773 17.9503 14.1995 17.9757C14.1868 17.9757 14.1486 17.9789 14.0851 17.9853C14.0216 17.9916 13.9391 17.9949 13.8374 17.9949C13.596 17.9949 13.2053 17.9536 12.6654 17.871C12.1255 17.7884 11.465 17.5851 10.6838 17.2612C9.90239 16.9373 9.01635 16.4513 8.0255 15.8035C7.03465 15.1557 5.98023 14.2664 4.86232 13.1357C3.97307 12.2592 3.23626 11.4207 2.6519 10.6204C2.06753 9.82009 1.5975 9.0801 1.2418 8.40046C0.886073 7.72082 0.619298 7.1047 0.441448 6.5521C0.263599 5.99949 0.142915 5.52311 0.0793972 5.12295C0.0158794 4.72278 -0.00952766 4.40837 0.00317589 4.17971C0.0158794 3.95104 0.0222312 3.82401 0.0222312 3.7986C0.0476383 3.62075 0.104804 3.43973 0.193729 3.25552C0.282654 3.07132 0.390634 2.92206 0.51767 2.80772L3.05203 0.273366C3.22988 0.0955167 3.43314 0.0065918 3.6618 0.0065918C3.82695 0.0065918 3.97304 0.0542301 4.10007 0.149507C4.22711 0.244783 4.33509 0.362291 4.42401 0.50203L6.46293 4.37026C6.57726 4.57352 6.60902 4.79583 6.55821 5.0372C6.50739 5.27857 6.39941 5.48182 6.23427 5.64697L5.30056 6.58068C5.27515 6.60609 5.25292 6.64737 5.23386 6.70454C5.21481 6.7617 5.20528 6.80934 5.20528 6.84745C5.25609 7.11423 5.37043 7.41911 5.54828 7.76211C5.70072 8.06699 5.93573 8.43857 6.25332 8.87685C6.57091 9.31512 7.02189 9.82005 7.60625 10.3917C8.17791 10.9761 8.68605 11.4302 9.13068 11.7542C9.57521 12.078 9.94691 12.3163 10.2454 12.4688C10.544 12.6212 10.7726 12.7133 10.9314 12.745L11.1695 12.7927C11.1949 12.7927 11.2363 12.7831 11.2934 12.7641C11.3506 12.745 11.3919 12.7228 11.4173 12.6973L12.5034 11.5921C12.7322 11.3889 12.9989 11.2873 13.3038 11.2873C13.5198 11.2873 13.6912 11.3254 13.8183 11.4016H13.8373L17.5149 13.5739C17.7818 13.7392 17.9406 13.9487 17.9914 14.2028Z" fill="#444952"/>
</svg>
