<svg width="24" height="24" viewBox="0 0 24 24" fill="none" xmlns="http://www.w3.org/2000/svg">
<rect x="0.75" y="0.75" width="22.5" height="22.5" rx="6.25" stroke="#4C4E55" stroke-width="1.5"/>
<path d="M18.8663 15.8545C18.826 15.787 18.5766 15.2451 17.3765 14.1312C16.1202 12.9649 16.2889 13.1543 17.8022 11.1376C18.7238 9.90935 19.0923 9.15929 18.9769 8.83864C18.8673 8.53299 18.1894 8.61362 18.1894 8.61362L15.9355 8.62675C15.9355 8.62675 15.7686 8.60425 15.6439 8.67832C15.5229 8.75145 15.4451 8.92021 15.4451 8.92021C15.4451 8.92021 15.0879 9.87091 14.6116 10.6791C13.6075 12.3845 13.2053 12.4745 13.0412 12.3686C12.6596 12.122 12.7552 11.3766 12.7552 10.8479C12.7552 9.19492 13.0056 8.5058 12.2668 8.32767C12.0211 8.2686 11.8411 8.22922 11.2139 8.22266C10.4094 8.21422 9.72782 8.22547 9.34248 8.41392C9.08559 8.53956 8.88776 8.81989 9.00871 8.83583C9.15778 8.85552 9.49531 8.92677 9.67438 9.17054C9.90596 9.48463 9.89752 10.1916 9.89752 10.1916C9.89752 10.1916 10.0307 12.137 9.58719 12.3789C9.28248 12.5449 8.86526 12.2064 7.96988 10.6585C7.51141 9.86622 7.16451 8.98959 7.16451 8.98959C7.16451 8.98959 7.09794 8.82645 6.97887 8.73926C6.83448 8.63331 6.63197 8.59956 6.63197 8.59956L4.48868 8.61269C4.48868 8.61269 4.1671 8.62206 4.04896 8.76176C3.94396 8.88646 4.04052 9.14335 4.04052 9.14335C4.04052 9.14335 5.71877 13.069 7.61829 15.0482C9.36123 16.8624 11.3395 16.7433 11.3395 16.7433H12.2358C12.2358 16.7433 12.5068 16.7133 12.6446 16.5642C12.7721 16.4273 12.7674 16.1704 12.7674 16.1704C12.7674 16.1704 12.7496 14.9675 13.3084 14.7903C13.8588 14.6159 14.5657 15.9529 15.3148 16.4676C15.8811 16.8567 16.3114 16.7714 16.3114 16.7714L18.315 16.7433C18.315 16.7433 19.3632 16.6786 18.8663 15.8545Z" fill="#4C4E55"/>
</svg>
