<svg width="24" height="24" viewBox="0 0 24 24" fill="none" xmlns="http://www.w3.org/2000/svg">
<rect x="0.75" y="0.75" width="22.5" height="22.5" rx="6.25" stroke="#4C4E55" stroke-width="1.5"/>
<path d="M11.9998 5.81616C8.58983 5.81616 5.81567 8.59032 5.81567 12.0003C5.81567 15.4102 8.58983 18.1842 11.9998 18.1842C15.4098 18.1842 18.184 15.4102 18.184 12.0003C18.184 8.59032 15.4098 5.81616 11.9998 5.81616ZM11.9998 16.0547C9.76412 16.0547 7.94506 14.2359 7.94506 12.0002C7.94506 9.76432 9.76398 7.9454 11.9998 7.9454C14.2357 7.9454 16.0546 9.76432 16.0546 12.0002C16.0546 14.2359 14.2355 16.0547 11.9998 16.0547Z" fill="#4C4E55"/>
<path d="M18.4434 4.0105C18.0331 4.0105 17.6301 4.17659 17.3404 4.46761C17.0492 4.7572 16.8818 5.16037 16.8818 5.57205C16.8818 5.98245 17.0493 6.38547 17.3404 6.67649C17.63 6.96608 18.0331 7.13359 18.4434 7.13359C18.8551 7.13359 19.2568 6.96608 19.5478 6.67649C19.8388 6.38547 20.0049 5.98231 20.0049 5.57205C20.0049 5.16037 19.8388 4.7572 19.5478 4.46761C19.2582 4.17659 18.8551 4.0105 18.4434 4.0105Z" fill="#4C4E55"/>
</svg>
