<svg width="31" height="36" viewBox="0 0 31 36" fill="none" xmlns="http://www.w3.org/2000/svg">
<path d="M15.5659 31.5711L17.4601 32.673L18.5371 32.0475L15.5659 30.3195V31.5711ZM15.5659 28.2238L20.3404 31.0009L21.4174 30.3758L15.5659 26.9727V28.2238ZM15.5659 24.877L23.2208 29.3287L24.2973 28.7037L15.5659 23.6254V24.877ZM20.6108 13.8545L20.5958 13.8635L15.5659 10.9302V12.1823L19.5193 14.488L15.5659 16.7827V18.0333L20.5943 15.1151L22.3947 16.1646L15.5659 20.128V21.5298L26.1006 27.6566L27.1776 27.0315L22.2714 24.1781L28.9805 20.2841L28.978 18.7517L20.6262 13.8814L20.6108 13.8545ZM28.1444 19.5184L21.1949 23.5521L19.3921 22.5035L26.3445 18.4683L28.1444 19.5184ZM25.2695 17.8413L18.3156 21.8775L16.5132 20.8289L23.4697 16.7917L25.2695 17.8413ZM28.973 15.3994L15.5659 7.58046V8.83258L28.975 16.653L28.973 15.3994ZM28.968 12.0471L15.5659 4.2312V5.48331L28.97 13.3003L28.968 12.0471Z" fill="#3B3D43"/>
<path d="M28.8409 26.0625L15.5657 33.777V2.25459L28.8151 9.8535C28.8981 9.9011 28.9442 9.99006 28.9444 10.0855L28.9716 25.8306C28.9716 25.9258 28.9234 26.0147 28.8409 26.0625ZM14.4443 33.7165L12.6738 32.6783V3.31963L14.4443 2.26747V33.7165ZM11.5527 32.0581L9.78199 31.0198V5.00012L11.5527 3.94797V32.0581ZM8.66083 30.3996L6.89034 29.3614V6.68062L8.66083 5.62846V30.3996ZM5.76896 28.7411L3.93944 27.7029V8.36111L5.76896 7.30896V28.7411ZM2.87709 27.0825L1.26104 26.1542C1.17811 26.1066 1.1305 26.0178 1.13029 25.9222L1.10577 10.1771C1.10556 10.0819 1.15274 9.99297 1.23526 9.94516L2.87709 8.98945V27.0825ZM30.0246 10.0838C30.0238 9.60075 29.7629 9.15137 29.3439 8.9113C29.3439 8.9113 15.6613 1.06816 15.6366 1.05964C15.4395 0.952178 15.224 0.89502 14.9987 0.89502C14.763 0.89502 14.5302 0.95696 14.3257 1.07419L13.0871 1.80542L0.689862 9.00608C0.273324 9.24781 0.017237 9.69719 0.0180684 10.179L0.0436441 25.9239C0.0442677 26.4069 0.305743 26.8563 0.724775 27.0964L14.3847 34.9241C14.5892 35.0414 14.822 35.1033 15.0577 35.1033C15.2961 35.1033 15.5312 35.0399 15.7374 34.9204L29.3751 27.0016C29.7914 26.7599 30.0498 26.3105 30.0489 25.8289L30.0246 10.0838Z" fill="#3B3D43"/>
</svg>
