<svg width="334" height="227" viewBox="0 0 334 227" fill="none" xmlns="http://www.w3.org/2000/svg">
<path d="M16 44.84H24.12C26.64 44.84 28.6467 44.5133 30.14 43.86C31.6333 43.1133 32.7533 42.0867 33.5 40.78C34.34 39.4733 34.9 37.8867 35.18 36.02C35.46 34.06 35.6 31.82 35.6 29.3C35.6 26.78 35.46 24.5867 35.18 22.72C34.9 20.76 34.2933 19.1267 33.36 17.82C32.52 16.42 31.3067 15.3933 29.72 14.74C28.1333 14.0867 26.0333 13.76 23.42 13.76H16V44.84ZM1.72 0.319998H24.68C41.48 0.319998 49.88 10.0733 49.88 29.58C49.88 35.3667 48.9467 40.36 47.08 44.56C45.3067 48.6667 42.1333 51.98 37.56 54.5L52.96 100H37.84L24.54 57.44H16V100H1.72V0.319998ZM82.7494 0.319998H97.0294V100H82.7494V0.319998ZM159.904 100H147.304L127.004 0.319998H142.124L153.464 69.9H153.744L165.224 0.319998H180.344L159.904 100ZM209.915 0.319998H252.475V13.76H224.195V43.02H248.835V56.46H224.195V85.72H252.475V100H209.915V0.319998ZM297.012 44.84H305.132C307.652 44.84 309.658 44.5133 311.152 43.86C312.645 43.1133 313.765 42.0867 314.512 40.78C315.352 39.4733 315.912 37.8867 316.192 36.02C316.472 34.06 316.612 31.82 316.612 29.3C316.612 26.78 316.472 24.5867 316.192 22.72C315.912 20.76 315.305 19.1267 314.372 17.82C313.532 16.42 312.318 15.3933 310.732 14.74C309.145 14.0867 307.045 13.76 304.432 13.76H297.012V44.84ZM282.732 0.319998H305.692C322.492 0.319998 330.892 10.0733 330.892 29.58C330.892 35.3667 329.958 40.36 328.092 44.56C326.318 48.6667 323.145 51.98 318.572 54.5L333.972 100H318.852L305.552 57.44H297.012V100H282.732V0.319998ZM47.08 203.74C47.08 206.82 46.4733 209.76 45.26 212.56C44.14 215.36 42.5533 217.833 40.5 219.98C38.4467 222.033 36.02 223.713 33.22 225.02C30.5133 226.233 27.5733 226.84 24.4 226.84C21.6933 226.84 18.94 226.467 16.14 225.72C13.34 224.973 10.82 223.713 8.58 221.94C6.34 220.073 4.47333 217.647 2.98 214.66C1.58 211.673 0.88 207.893 0.88 203.32V148.44C0.88 145.173 1.44 142.14 2.56 139.34C3.68 136.54 5.26667 134.113 7.32 132.06C9.37333 130.007 11.8 128.42 14.6 127.3C17.4933 126.087 20.6667 125.48 24.12 125.48C27.3867 125.48 30.42 126.087 33.22 127.3C36.02 128.42 38.4467 130.053 40.5 132.2C42.5533 134.253 44.14 136.773 45.26 139.76C46.4733 142.653 47.08 145.827 47.08 149.28V154.88H32.8V150.12C32.8 147.32 32.0067 144.893 30.42 142.84C28.8333 140.787 26.6867 139.76 23.98 139.76C20.4333 139.76 18.0533 140.88 16.84 143.12C15.72 145.267 15.16 148.02 15.16 151.38V202.34C15.16 205.233 15.7667 207.66 16.98 209.62C18.2867 211.58 20.5733 212.56 23.84 212.56C24.7733 212.56 25.7533 212.42 26.78 212.14C27.9 211.767 28.88 211.207 29.72 210.46C30.6533 209.713 31.4 208.687 31.96 207.38C32.52 206.073 32.8 204.44 32.8 202.48V197.58H47.08V203.74ZM72.7317 126.32H87.0117V211.72H115.292V226H72.7317V126.32ZM184.748 203.6C184.748 206.867 184.141 209.9 182.928 212.7C181.715 215.5 180.035 217.973 177.888 220.12C175.835 222.173 173.408 223.807 170.608 225.02C167.808 226.233 164.821 226.84 161.648 226.84C158.475 226.84 155.488 226.233 152.688 225.02C149.888 223.807 147.415 222.173 145.268 220.12C143.215 217.973 141.581 215.5 140.368 212.7C139.155 209.9 138.548 206.867 138.548 203.6V126.32H152.828V202.2C152.828 205.747 153.668 208.36 155.348 210.04C157.028 211.72 159.128 212.56 161.648 212.56C164.168 212.56 166.268 211.72 167.948 210.04C169.628 208.36 170.468 205.747 170.468 202.2V126.32H184.748V203.6ZM212.158 126.32H233.018C237.591 126.32 241.464 127.02 244.638 128.42C247.904 129.82 250.564 131.687 252.618 134.02C254.671 136.353 256.118 139.06 256.958 142.14C257.891 145.127 258.358 148.253 258.358 151.52V155.16C258.358 157.867 258.124 160.153 257.658 162.02C257.284 163.887 256.678 165.52 255.838 166.92C254.998 168.32 253.971 169.58 252.758 170.7C251.544 171.727 250.144 172.707 248.558 173.64C251.918 175.227 254.391 177.607 255.978 180.78C257.564 183.86 258.358 188.013 258.358 193.24V198.84C258.358 207.613 256.211 214.333 251.918 219C247.718 223.667 240.951 226 231.618 226H212.158V126.32ZM226.438 211.72H232.598C235.491 211.72 237.731 211.3 239.318 210.46C240.998 209.62 242.258 208.453 243.098 206.96C243.938 205.467 244.451 203.693 244.638 201.64C244.824 199.587 244.918 197.347 244.918 194.92C244.918 192.4 244.778 190.207 244.498 188.34C244.218 186.473 243.611 184.933 242.678 183.72C241.838 182.413 240.624 181.433 239.038 180.78C237.451 180.127 235.351 179.8 232.738 179.8H226.438V211.72ZM226.438 167.2H232.878C237.638 167.2 240.811 166.033 242.397 163.7C244.078 161.273 244.918 157.773 244.918 153.2C244.918 148.72 243.984 145.36 242.118 143.12C240.344 140.88 237.078 139.76 232.318 139.76H226.438V167.2Z" fill="#3B3D43"/>
</svg>
