<svg width="192" height="338" viewBox="0 0 192 338" fill="none" xmlns="http://www.w3.org/2000/svg">
<path d="M98.353 154.207L107.862 159.739L113.269 156.599L98.353 147.924V154.207ZM98.353 137.403L122.322 151.345L127.729 148.207L98.353 131.122V137.403ZM98.353 120.601L136.782 142.95L142.187 139.812L98.353 114.318V120.601ZM123.68 65.265L123.604 65.3101L98.353 50.5845V56.8704L118.2 68.4455L98.353 79.9656V86.2439L123.597 71.5935L132.635 76.8627L98.353 96.7597V103.797L151.24 134.555L156.647 131.417L132.017 117.093L165.698 97.5436L165.685 89.8502L123.757 65.4002L123.68 65.265ZM161.5 93.6994L126.612 113.95L117.561 108.685L152.465 88.4277L161.5 93.6994ZM147.068 85.2798L112.157 105.542L103.109 100.278L138.032 80.0106L147.068 85.2798ZM165.66 73.021L98.353 33.7678V40.0537L165.67 79.3144L165.66 73.021ZM165.635 56.1917L98.353 16.9536V23.2395L165.645 62.4827L165.635 56.1917Z" fill="white"/>
<path d="M164.997 126.552L98.3519 165.281V7.03001L164.868 45.1786C165.284 45.4175 165.516 45.8641 165.517 46.3431L165.653 125.388C165.653 125.866 165.411 126.312 164.997 126.552ZM92.7223 164.977L83.834 159.765V12.3768L92.7223 7.09468V164.977ZM78.2055 156.651L69.3161 151.439V20.8133L78.2055 15.5312V156.651ZM63.6876 148.325L54.7992 143.113V29.2499L63.6876 23.9678V148.325ZM49.1696 140L39.9849 134.787V37.6864L49.1696 32.4043V140ZM34.6517 131.673L26.5386 127.012C26.1223 126.773 25.8833 126.328 25.8823 125.848L25.7592 46.8033C25.7581 46.3254 25.995 45.8787 26.4092 45.6387L34.6517 40.8408V131.673ZM170.939 46.3347C170.935 43.9097 169.626 41.6537 167.522 40.4485C167.522 40.4485 98.8319 1.0738 98.7078 1.03102C97.7185 0.491539 96.6365 0.20459 95.5054 0.20459C94.322 0.20459 93.1533 0.515546 92.1265 1.10407L85.9084 4.77503L23.6712 40.9243C21.58 42.1379 20.2944 44.3939 20.2986 46.8127L20.427 125.856C20.4301 128.281 21.7428 130.537 23.8464 131.742L92.4229 171.04C93.4496 171.628 94.6184 171.939 95.8017 171.939C96.9986 171.939 98.1787 171.621 99.2138 171.021L167.679 131.267C169.769 130.053 171.066 127.797 171.062 125.379L170.939 46.3347Z" fill="#8ED4D7"/>
<path d="M19.3013 217.272C20.9034 215.986 21.7045 213.91 21.7045 211.041C21.7045 208.343 20.8927 206.392 19.2692 205.19C17.6447 203.988 15.0407 203.387 11.4572 203.387H6.08048V219.201H12.1526C15.3152 219.201 17.6981 218.559 19.3013 217.272ZM6.08048 223.82V242.29H0.0703125V198.706H11.5202C16.96 198.706 21.0818 199.741 23.8866 201.806C26.6914 203.872 28.0938 206.951 28.0938 211.041C28.0938 214.078 27.313 216.545 25.7526 218.442C24.1921 220.34 21.8305 221.774 18.6679 222.744L30.434 242.29H23.2863L12.8489 223.82H6.08048Z" fill="white"/>
<path d="M53.2645 198.706H47.1914V242.29H53.2645V198.706Z" fill="white"/>
<path d="M82.8675 242.29L68.8242 198.706H75.2766L86.2202 235.775L97.1639 198.706H103.236L89.3199 242.29H82.8675Z" fill="white"/>
<path d="M124.815 203.513V217.746H139.49V222.554H124.815V237.483H142.906V242.29H118.805V198.706H142.4L141.705 203.513H124.815Z" fill="white"/>
<path d="M180.726 217.272C182.328 215.986 183.13 213.91 183.13 211.041C183.13 208.343 182.318 206.392 180.695 205.19C179.071 203.988 176.466 203.387 172.883 203.387H167.506V219.201H173.578C176.741 219.201 179.123 218.559 180.726 217.272ZM167.506 223.82V242.29H161.496V198.706H172.946C178.386 198.706 182.508 199.741 185.312 201.806C188.116 203.872 189.519 206.951 189.519 211.041C189.519 214.078 188.738 216.545 187.178 218.442C185.618 220.34 183.256 221.774 180.094 222.744L191.86 242.29H184.711L174.274 223.82H167.506Z" fill="white"/>
<path d="M74.4523 265.818C75.1465 266.091 75.8461 266.509 76.55 267.072L75.7062 268.128C75.0899 267.635 74.5004 267.283 73.9375 267.072C73.3746 266.86 72.7326 266.754 72.0106 266.754C70.3038 266.754 68.9174 267.406 67.8536 268.708C66.7887 270.01 66.2568 272.017 66.2568 274.726C66.2568 276.486 66.5035 277.964 66.9959 279.16C67.4883 280.357 68.1612 281.241 69.0146 281.813C69.868 282.385 70.84 282.67 71.9316 282.67C72.7765 282.67 73.4931 282.543 74.0827 282.288C74.6723 282.034 75.2833 281.65 75.9177 281.14L76.7615 282.196C75.4766 283.445 73.8498 284.069 71.8781 284.069C70.4704 284.069 69.2175 283.709 68.1174 282.987C67.0183 282.266 66.1553 281.206 65.5305 279.807C64.9056 278.408 64.5938 276.714 64.5938 274.726C64.5938 272.738 64.9196 271.044 65.5711 269.646C66.2216 268.246 67.0963 267.19 68.1965 266.478C69.2966 265.765 70.5324 265.409 71.9049 265.409C72.9078 265.409 73.757 265.545 74.4523 265.818Z" fill="white"/>
<path d="M91.4085 282.345L91.198 283.77H82.2773V265.69H83.8603V282.345H91.4085Z" fill="white"/>
<path d="M106.851 282.437C105.829 283.52 104.361 284.06 102.442 284.06C100.49 284.06 99.0118 283.524 98.0088 282.45C97.0059 281.377 96.5039 279.934 96.5039 278.121V265.69H98.0879V277.99C98.0879 279.504 98.4436 280.665 99.1571 281.474C99.8695 282.283 100.965 282.688 102.442 282.688C103.921 282.688 105.011 282.278 105.715 281.46C106.419 280.642 106.771 279.485 106.771 277.99V265.69H108.382V278.121C108.382 279.917 107.872 281.355 106.851 282.437Z" fill="white"/>
<path d="M125.749 278.755C125.749 277.453 125.349 276.485 124.549 275.852C123.748 275.218 122.688 274.901 121.368 274.901H117.541V282.45H120.893C124.13 282.45 125.749 281.219 125.749 278.755ZM117.541 273.634H121.183C122.309 273.634 123.216 273.34 123.901 272.751C124.588 272.161 124.931 271.348 124.931 270.308C124.931 269.13 124.531 268.285 123.731 267.775C122.93 267.265 121.738 267.01 120.155 267.01H117.541V273.634ZM126.225 275.495C126.999 276.226 127.386 277.313 127.386 278.755C127.386 280.445 126.814 281.703 125.67 282.529C124.526 283.357 122.934 283.77 120.893 283.77H115.957V265.69H119.995C122.09 265.69 123.704 266.069 124.839 266.825C125.974 267.582 126.542 268.707 126.542 270.204C126.542 271.311 126.237 272.21 125.631 272.895C125.024 273.582 124.219 274.014 123.216 274.189C124.447 274.33 125.45 274.766 126.225 275.495Z" fill="white"/>
</svg>
