<svg width="139" height="83" viewBox="0 0 139 83" fill="none" xmlns="http://www.w3.org/2000/svg">
<path fill-rule="evenodd" clip-rule="evenodd" d="M12.6754 54.1641H17.0129L19.4645 51.6703L21.916 54.1641H26.2366L19.456 47.2668L12.6754 54.1641ZM0 39.3021L7.30663 53.6521L11.7295 49.3711L6.44197 40.9901L0 39.3021ZM39.0001 39.2999L31.6935 53.6499L27.2707 49.3689L32.5582 40.9879L39.0001 39.2999ZM19.4586 33.7559L12.1688 43.7598L14.1143 47.0398L19.4586 41.7684L24.8028 47.0398L26.7483 43.7598L19.4586 33.7559Z" fill="#444952"/>
<path d="M50.4653 47.3045L49.7304 48.6196C49.5488 48.9413 49.37 49.1093 49.1935 49.1235C49.0023 49.1375 48.8114 48.969 48.6207 48.6171L46.0397 43.9116H47.1943L49.1929 47.644L49.9106 46.3007L48.6055 43.9116H49.7544L51.7573 47.6471L53.786 43.9116H54.9306L52.2921 48.6171C52.1111 48.9404 51.9326 49.1093 51.7569 49.1235C51.5663 49.1375 51.3762 48.969 51.186 48.6179L50.4653 47.3045Z" fill="#444952"/>
<path d="M60.1895 46.8847H57.259V45.9935H60.1895V46.8847ZM56.8814 48.1467H60.418V49.0379H55.9902V43.9116H60.418V44.8028H56.8814V48.1467Z" fill="#444952"/>
<path d="M65.8325 48.1467C66.1607 48.1467 66.4222 48.0848 66.6171 47.9614C66.7881 47.8516 66.874 47.7164 66.874 47.5548C66.874 47.3933 66.7856 47.2576 66.6097 47.1483C66.4195 47.02 66.1607 46.9556 65.8325 46.9556H63.4301V46.0644H65.8325C66.1607 46.0644 66.4195 45.9982 66.6097 45.8651C66.7856 45.7464 66.874 45.6014 66.874 45.4299C66.874 45.2588 66.7881 45.114 66.6171 44.9951C66.4222 44.8668 66.1607 44.8028 65.8325 44.8028H62.9096V48.1467H65.8325ZM67.1947 46.5066C67.5557 46.7872 67.7363 47.1368 67.7363 47.5548C67.7363 47.954 67.5655 48.2938 67.2229 48.5745C66.8473 48.8833 66.3364 49.0379 65.6902 49.0379H62.0184V43.9116H65.6902C66.3364 43.9116 66.8473 44.0708 67.2229 44.389C67.5655 44.6746 67.7363 45.0235 67.7363 45.4373C67.7363 45.8602 67.5557 46.2168 67.1947 46.5066Z" fill="#444952"/>
<path d="M76.7575 47.6134H74.3249L74.8679 46.7222H76.2252L75.3333 45.2461L73.02 49.0468H71.8724L74.6531 44.4123C74.7432 44.2646 74.8598 44.1438 75.0024 44.0486C75.1256 43.9632 75.2352 43.918 75.3302 43.9131C75.4351 43.9036 75.5513 43.9392 75.6797 44.0202C75.827 44.1155 75.9508 44.2459 76.0503 44.4123L78.7741 49.0468H77.6248L76.7575 47.6134Z" fill="#444952"/>
<path d="M79.5411 49.0379V43.9116H80.4323V48.1467H83.9614V49.0379H79.5411Z" fill="#444952"/>
<path d="M87.8042 44.8028V49.0379H86.913V44.8028H84.8881V43.9116H89.8221V44.8028H87.8042Z" fill="#444952"/>
<path d="M95.2007 46.8847H92.2702V45.9935H95.2007V46.8847ZM91.8927 48.1467H95.4292V49.0379H91.0015V43.9116H95.4292V44.8028H91.8927V48.1467Z" fill="#444952"/>
<path d="M102.988 49.0379H101.67L100.237 47.5974H98.3126V46.7063H100.708C101.126 46.7063 101.444 46.6045 101.663 46.3999C101.853 46.2144 101.941 45.9865 101.927 45.7154C101.894 45.107 101.488 44.8028 100.708 44.8028H97.7846V49.0379H96.8934V43.9116H100.572C101.347 43.9116 101.934 44.0996 102.333 44.4751C102.671 44.789 102.847 45.2028 102.861 45.7162C102.875 46.1204 102.768 46.4774 102.54 46.7862C102.287 47.1288 101.921 47.3641 101.44 47.4925L102.988 49.0379Z" fill="#444952"/>
<path d="M108.627 48.7812L105.34 45.4774V49.0379H104.449V44.3608C104.449 44.2228 104.484 44.1136 104.556 44.0327C104.627 43.9521 104.719 43.9116 104.834 43.9116C105 43.9116 105.169 43.9996 105.34 44.1753L108.627 47.4692V43.9116H109.518V48.5959C109.518 48.9238 109.406 49.0879 109.183 49.0879C109.016 49.0879 108.831 48.9857 108.627 48.7812Z" fill="#444952"/>
<path d="M115.719 47.6134H113.287L113.83 46.7222H115.187L114.295 45.2461L111.982 49.0468H110.834L113.615 44.4123C113.705 44.2646 113.822 44.1438 113.964 44.0486C114.088 43.9632 114.197 43.918 114.292 43.9131C114.397 43.9036 114.513 43.9392 114.642 44.0202C114.789 44.1155 114.913 44.2459 115.012 44.4123L117.736 49.0468H116.587L115.719 47.6134Z" fill="#444952"/>
<path d="M121.05 44.8028V49.0379H120.159V44.8028H118.134V43.9116H123.068V44.8028H121.05Z" fill="#444952"/>
<path d="M125.28 43.9116H124.389V49.0379H125.28V43.9116Z" fill="#444952"/>
<path d="M130.614 48.6171C130.409 48.9404 130.231 49.1093 130.079 49.1237C129.908 49.1375 129.715 48.9692 129.502 48.6171L126.643 43.9116H127.794L130.081 47.7175L132.387 43.9116H133.537L130.614 48.6171Z" fill="#444952"/>
<path d="M138.749 46.8847H135.819V45.9935H138.749V46.8847ZM135.441 48.1467H138.978V49.0379H134.55V43.9116H138.978V44.8028H135.441V48.1467Z" fill="#444952"/>
</svg>
